<svg width="14" height="15" viewBox="0 0 14 15" fill="none" xmlns="http://www.w3.org/2000/svg">
<g id="LEFC Logo">
<path id="Fill 2" fill-rule="evenodd" clip-rule="evenodd" d="M6.93849 0.5C10.7679 0.5 13.877 3.60904 13.877 7.43849C13.877 11.2679 10.7679 14.377 6.93849 14.377C3.10904 14.377 0 11.2679 0 7.43849C0 3.60904 3.10904 0.5 6.93849 0.5Z" fill="#107052"/>
<path id="Fill 3" fill-rule="evenodd" clip-rule="evenodd" d="M6.93849 1.45703C10.2397 1.45703 12.92 4.13726 12.92 7.43851C12.92 10.7398 10.2397 13.42 6.93849 13.42C3.63725 13.42 0.957062 10.7398 0.957062 7.43851C0.957062 4.13726 3.63725 1.45703 6.93849 1.45703Z" fill="white"/>
<path id="Fill 4" fill-rule="evenodd" clip-rule="evenodd" d="M6.8832 4.79089C5.92443 3.83207 4.36758 3.83207 3.40881 4.79089C2.45003 5.74967 2.45003 7.30651 3.40881 8.26529C4.36758 9.22406 5.92443 9.22406 6.8832 8.26529C7.84198 7.30651 7.84198 5.74967 6.8832 4.79089Z" fill="#272727"/>
<path id="Fill 5" fill-rule="evenodd" clip-rule="evenodd" d="M10.3688 8.25404C11.3164 7.29436 11.3127 5.74592 10.3576 4.79089C9.39883 3.83207 7.84198 3.83207 6.88321 4.79089L3.40881 8.26529L6.88321 11.7397L10.3576 8.26529L10.3688 8.25404Z" fill="#107253"/>
</g>
</svg>
