<svg width="77" height="24" viewBox="0 0 77 24" fill="none" xmlns="http://www.w3.org/2000/svg">
<g id="amazon-seeklogo.com">
<path id="Fill 1" fill-rule="evenodd" clip-rule="evenodd" d="M47.1062 18.2178C42.66 21.7939 36.2137 23.696 30.663 23.696C22.8833 23.696 15.8781 20.562 10.5762 15.3447C10.16 14.935 10.5313 14.3752 11.0316 14.6926C16.7515 18.3202 23.8244 20.5049 31.13 20.5049C36.0581 20.5049 41.4755 19.3902 46.46 17.086C47.2118 16.7382 47.8421 17.626 47.1062 18.2178Z" fill="#787878"/>
<path id="Fill 2" fill-rule="evenodd" clip-rule="evenodd" d="M49.2304 16.513C48.6476 15.8187 45.3799 16.1839 43.9123 16.3473C43.4676 16.397 43.3986 16.0359 43.7995 15.7737C46.406 14.0697 50.6768 14.5619 51.1732 15.1319C51.6737 15.7076 51.0425 19.6929 48.5994 21.5948C48.2236 21.8875 47.8664 21.7316 48.0329 21.3449C48.5824 20.0676 49.8131 17.2072 49.2304 16.513Z" fill="#787878"/>
<path id="Fill 3" fill-rule="evenodd" clip-rule="evenodd" d="M43.3485 3.17953V1.40433C43.3496 1.13414 43.5574 0.95401 43.8074 0.954559L51.9202 0.953735C52.1794 0.953735 52.3877 1.13908 52.3883 1.40214L52.3877 2.92472C52.3858 3.18008 52.1665 3.51343 51.7768 4.04229L47.5746 9.92695C49.1345 9.89126 50.7846 10.12 52.2021 10.9015C52.5215 11.0775 52.6072 11.3389 52.6324 11.5945V13.4886C52.6324 13.7497 52.3412 14.0518 52.0352 13.8947C49.538 12.6119 46.2243 12.4715 43.4633 13.9101C43.1811 14.0576 42.8857 13.7599 42.8857 13.4988V11.698C42.8857 11.41 42.8913 10.9171 43.1875 10.4778L48.0564 3.62739L43.8172 3.62656C43.5582 3.62656 43.3502 3.44533 43.3485 3.17953Z" fill="#787878"/>
<path id="Fill 4" fill-rule="evenodd" clip-rule="evenodd" d="M15.7242 13.9493H13.4093C13.1889 13.9348 13.0127 13.7685 12.9951 13.5567L12.9967 1.63434C12.9967 1.39588 13.1965 1.20511 13.4434 1.20511L15.5995 1.20458C15.8251 1.21618 16.0063 1.38745 16.0205 1.60483V3.16156H16.0638C16.6258 1.65621 17.6847 0.953735 19.1109 0.953735C20.559 0.953735 21.4666 1.65621 22.115 3.16156C22.6768 1.65621 23.9518 0.953735 25.3134 0.953735C26.2859 0.953735 27.3448 1.35504 27.9932 2.2583C28.728 3.26168 28.577 4.71697 28.577 5.9965L28.5751 13.5201C28.5751 13.7583 28.375 13.9493 28.1287 13.9493H25.8161C25.5837 13.9343 25.4004 13.7496 25.4004 13.5211L25.3998 7.20067C25.3998 6.69897 25.4432 5.44447 25.335 4.96781C25.1622 4.16494 24.6435 3.93913 23.9736 3.93913C23.4118 3.93913 22.828 4.3154 22.5904 4.91775C22.3527 5.51983 22.3745 6.52322 22.3745 7.20067V13.5201C22.3745 13.7583 22.1744 13.9493 21.9278 13.9493H19.6154C19.383 13.9343 19.1997 13.7496 19.1997 13.5211L19.1973 7.20067C19.1973 5.87107 19.4135 3.9141 17.7711 3.9141C16.1069 3.9141 16.1717 5.82074 16.1717 7.20067L16.1709 13.5201C16.1712 13.7583 15.9711 13.9493 15.7242 13.9493Z" fill="#787878"/>
<path id="Fill 5" fill-rule="evenodd" clip-rule="evenodd" d="M59.758 2.81083C58.0678 2.81083 57.9609 5.21403 57.9609 6.71283C57.9609 8.21191 57.9396 11.4166 59.7366 11.4166C61.5124 11.4166 61.5976 8.83212 61.5976 7.25568C61.5976 6.2221 61.555 4.98169 61.2555 3.9994C60.9984 3.14659 60.485 2.81083 59.758 2.81083ZM59.7366 0.303955C63.1381 0.303955 64.9775 3.35341 64.9775 7.2299C64.9775 10.9769 62.9457 13.9493 59.7366 13.9493C56.3994 13.9493 54.5811 10.8996 54.5811 7.1007C54.5811 3.27578 56.4207 0.303955 59.7366 0.303955Z" fill="#787878"/>
<path id="Fill 6" fill-rule="evenodd" clip-rule="evenodd" d="M69.0711 13.9493H66.707C66.4693 13.9343 66.2811 13.7496 66.2811 13.5211L66.2773 1.59429C66.2973 1.37638 66.494 1.20511 66.7331 1.20511L68.9344 1.20458C69.1414 1.21486 69.3123 1.35346 69.3559 1.53843V3.36208H69.4006C70.0652 1.73131 70.9952 0.953735 72.6345 0.953735C73.6975 0.953735 74.739 1.33001 75.4036 2.35869C76.024 3.31201 76.024 4.91775 76.024 6.07159V13.5735C75.9971 13.7851 75.8036 13.9493 75.5691 13.9493H73.1901C72.9705 13.9353 72.7933 13.7775 72.7675 13.5735V7.10028C72.7675 5.79571 72.9225 3.88907 71.2832 3.88907C70.7072 3.88907 70.1756 4.26534 69.9102 4.84239C69.578 5.5699 69.5333 6.29741 69.5333 7.10028V13.5201C69.529 13.7583 69.3239 13.9493 69.0711 13.9493Z" fill="#787878"/>
<path id="Fill 7" fill-rule="evenodd" clip-rule="evenodd" d="M40.213 13.6301C40.0569 13.77 39.8321 13.7794 39.6562 13.6849C38.8735 13.0337 38.7332 12.7327 38.3055 12.113C37.0117 13.4321 36.0953 13.8275 34.42 13.8275C32.436 13.8275 30.8926 12.6021 30.8926 10.1513C30.8926 8.23643 31.9287 6.93451 33.4059 6.29612C34.6844 5.73425 36.4703 5.63232 37.8371 5.47901V5.17265C37.8371 4.61106 37.8812 3.94725 37.5506 3.46217C37.2637 3.0282 36.7128 2.84947 36.2276 2.84947C35.3289 2.84947 34.5299 3.31047 34.3334 4.26591C34.2928 4.47835 34.1378 4.68865 33.9242 4.69935L31.64 4.45213C31.4473 4.40852 31.2329 4.2536 31.2885 3.95902C31.8135 1.18527 34.3158 0.34729 36.5586 0.34729C37.7048 0.34729 39.2039 0.653641 40.1077 1.52186C41.2542 2.59422 41.1438 4.02377 41.1438 5.58121V9.25609C41.1438 10.3614 41.6028 10.8464 42.0334 11.442C42.1839 11.6566 42.2179 11.9118 42.0257 12.0686C41.5442 12.4724 40.6891 13.2162 40.2183 13.6352L40.213 13.6301ZM37.8371 7.87898C37.8371 8.7983 37.859 9.56404 37.3961 10.3812C37.0213 11.045 36.4262 11.4533 35.7646 11.4533C34.8608 11.4533 34.3318 10.7638 34.3318 9.74277C34.3318 7.73396 36.1322 7.36848 37.8371 7.36848V7.87898Z" fill="#787878"/>
<path id="Fill 9" fill-rule="evenodd" clip-rule="evenodd" d="M9.32016 13.6301C9.16405 13.77 8.93897 13.7794 8.76334 13.6849C7.98038 13.0337 7.84031 12.7327 7.41234 12.113C6.11908 13.4321 5.20273 13.8275 3.5272 13.8275C1.54293 13.8275 0 12.6021 0 10.1513C0 8.23643 1.03611 6.93451 2.51302 6.29612C3.79184 5.73425 5.5775 5.63232 6.94427 5.47901V5.17265C6.94427 4.61106 6.98838 3.94725 6.65771 3.46217C6.37115 3.0282 5.81969 2.84947 5.33505 2.84947C4.43634 2.84947 3.6368 3.31047 3.44086 4.26591C3.39996 4.47835 3.24519 4.68865 3.03134 4.69935L0.747409 4.45213C0.554409 4.40852 0.339756 4.2536 0.395624 3.95902C0.920361 1.18527 3.42295 0.34729 5.66545 0.34729C6.81195 0.34729 8.31105 0.653641 9.2151 1.52186C10.3613 2.59422 10.2512 4.02377 10.2512 5.58121V9.25609C10.2512 10.3614 10.7097 10.8464 11.1406 11.442C11.2908 11.6566 11.3247 11.9118 11.1328 12.0686C10.6516 12.4724 9.79598 13.2162 9.32577 13.6352L9.32016 13.6301ZM6.94427 7.87898C6.94427 8.7983 6.96646 9.56404 6.50321 10.3812C6.1287 11.045 5.53339 11.4533 4.87206 11.4533C3.96827 11.4533 3.43899 10.7638 3.43899 9.74277C3.43899 7.73396 5.23961 7.36848 6.94427 7.36848V7.87898Z" fill="#787878"/>
</g>
</svg>
