<svg width="109" height="14" viewBox="0 0 109 14" fill="none" xmlns="http://www.w3.org/2000/svg">
<g id="atlassian-vector-logo">
<path id="Path" d="M3.76547 6.33175C3.64407 6.17856 3.41863 6.14452 3.26255 6.26366C3.21052 6.2977 3.17584 6.34877 3.15849 6.39983L0.0369096 12.5444C-0.0498011 12.7316 0.0195674 12.9529 0.210331 13.038C0.262357 13.055 0.314384 13.072 0.383752 13.072H4.73663C4.87537 13.072 5.0141 13.0039 5.06613 12.8678C5.98526 10.9614 5.41297 8.06788 3.76547 6.33175Z" fill="#787878"/>
<path id="Path_2" d="M6.18851 0.215795C4.5614 2.71956 4.36472 5.88034 5.68786 8.56167L7.85137 12.8589C7.92289 12.9832 8.04805 13.072 8.19109 13.072H12.679C12.8936 13.072 13.0724 12.8944 13.0724 12.6813C13.0724 12.6281 13.0545 12.557 13.0366 12.5038C13.0366 12.5038 6.99312 0.49991 6.85007 0.198038C6.76067 0.0204663 6.54611 -0.0505625 6.36731 0.0382235C6.27791 0.091495 6.22427 0.144767 6.18851 0.215795Z" fill="#787878"/>
<path id="Shape" fill-rule="evenodd" clip-rule="evenodd" d="M68.0949 10.227C68.0949 10.2304 68.0949 10.2339 68.0949 10.2373L59.9092 5.47111C59.9092 5.46088 59.9091 5.45063 59.9091 5.44038L68.0949 10.227ZM68.0949 10.227L68.1124 10.2373C68.1124 12.3359 66.918 13.76 63.9493 13.76C61.8414 13.76 60.7172 13.2541 59.8564 12.8044V10.0874C61.1212 10.8556 62.544 11.2679 63.9844 11.2866C65.1789 11.2866 65.5302 10.8931 65.5302 10.3122C65.5302 9.71263 65.1789 9.41282 63.475 9.03806C60.6468 8.44214 59.9181 7.12439 59.9092 5.47111L59.8564 5.44038C59.8564 3.34172 61.2793 2.06754 64.0371 2.06754C65.2492 2.03007 66.4437 2.2924 67.5503 2.8358V5.45911C66.4085 4.89697 65.1965 4.50348 63.9669 4.50348C62.9481 4.50348 62.4035 4.78455 62.4035 5.44038C62.4035 5.9463 62.79 6.32106 64.3182 6.67708C67.1064 7.31307 68.0915 8.24783 68.0949 10.227Z" fill="#787878"/>
<path id="Path_3" d="M99.0723 2.06403V13.072H101.426V4.68411L102.411 6.90391L105.749 13.072H108.704V2.06403H106.351V9.17829L105.457 7.10405L102.775 2.06403H99.0723Z" fill="#787878"/>
<rect id="Rectangle" x="81.1836" y="2.06403" width="2.752" height="11.008" fill="#787878"/>
<path id="Path_4" d="M79.1198 10.2373C79.1198 8.25107 78.0586 7.31417 75.0457 6.67708C73.3971 6.32106 72.9803 5.9463 72.9803 5.44038C72.9803 4.78455 73.5677 4.50348 74.6667 4.50348C75.9932 4.50348 77.3007 4.89697 78.5324 5.45911V2.8358C77.3386 2.2924 76.05 2.03007 74.7425 2.06754C71.7675 2.06754 70.2326 3.34172 70.2326 5.44038C70.2326 7.10805 71.0095 8.43845 74.0793 9.03806C75.9174 9.41282 76.2964 9.71263 76.2964 10.3122C76.2964 10.8931 75.9174 11.2866 74.6288 11.2866C73.075 11.2679 71.5401 10.8556 70.1758 10.0874V12.8044C71.1043 13.2541 72.317 13.76 74.5909 13.76C77.8502 13.7413 79.1198 12.3359 79.1198 10.2373Z" fill="#787878"/>
<path id="Path_5" d="M39.9043 2.06403V13.072H45.2645L46.0963 10.6885H42.529V2.06403H39.9043Z" fill="#787878"/>
<path id="Path_6" d="M29.584 2.06403V4.44758H32.3655V13.072H34.8813V4.44758H37.84V2.06403H29.584Z" fill="#787878"/>
<path id="Shape_2" fill-rule="evenodd" clip-rule="evenodd" d="M22.3964 2.06403H25.764L29.5842 13.072H26.6692L26.1261 11.2161C24.7863 11.6164 23.3741 11.6164 22.0343 11.2161L21.4911 13.072H18.5762L22.3964 2.06403ZM22.668 9.03273C23.1387 9.16009 23.6094 9.23287 24.0802 9.23287C24.5509 9.23287 25.0216 9.17829 25.4924 9.03273L24.0802 4.22924L22.668 9.03273Z" fill="#787878"/>
<path id="Shape_3" fill-rule="evenodd" clip-rule="evenodd" d="M50.6044 2.06403H53.972L57.7922 13.072H54.8772L54.3341 11.2161C52.9943 11.6164 51.5821 11.6164 50.2423 11.2161L49.6991 13.072H46.7842L50.6044 2.06403ZM50.876 9.03273C51.3467 9.16009 51.8174 9.23287 52.2882 9.23287C52.7589 9.23287 53.2297 9.17829 53.7004 9.03273L52.2882 4.22924L50.876 9.03273Z" fill="#787878"/>
<path id="Shape_4" fill-rule="evenodd" clip-rule="evenodd" d="M89.8202 2.06403H93.1878L97.008 13.072H94.0931L93.5499 11.2161C92.2101 11.6164 90.7979 11.6164 89.4581 11.2161L88.9149 13.072H86L89.8202 2.06403ZM90.0918 9.03273C90.5625 9.16009 91.0333 9.23287 91.504 9.23287C91.9747 9.23287 92.4455 9.17829 92.9162 9.03273L91.504 4.22924L90.0918 9.03273Z" fill="#787878"/>
</g>
</svg>
