<svg width="77" height="16" viewBox="0 0 77 16" fill="none" xmlns="http://www.w3.org/2000/svg">
<g id="Canon_wordmark 1" clip-path="url(#clip0_7_118)">
<path id="C" d="M12.44 14.3838C8.89762 14.3838 6.02676 11.5114 6.02676 7.96838C6.02676 4.42514 8.89762 1.55552 12.44 1.55552C13.6886 1.55552 14.8543 1.91162 15.839 2.52886L12.44 7.96838L18.839 4.27352C18.1438 3.16581 17.1467 2.21133 15.941 1.48705C14.4067 0.568476 12.2724 0 9.91238 0C6.5459 0 3.59248 1.22333 1.94543 3.05533C0.726 4.40962 0 6.1141 0 7.96829C0 9.82381 0.726 11.5295 1.94543 12.8848C3.59676 14.719 6.50619 15.9352 9.81714 15.9352C13.1276 15.9352 16.0362 14.7181 17.6886 12.8848C17.779 12.7838 17.8667 12.6819 17.9495 12.5762L17.7 11.641C16.539 13.2981 14.6162 14.3838 12.44 14.3838Z" fill="#787878"/>
<path id="a" d="M33.6554 15.5495L30.9697 5.53048C30.5382 3.91144 29.0639 2.72144 27.3087 2.72144C26.8535 2.72144 26.4173 2.80277 26.0125 2.95001L20.2306 5.05248H26.1773L27.1935 8.84753C26.2077 7.99915 24.9239 7.48296 23.5182 7.48296C20.7268 7.48296 18.4668 9.35353 18.4668 11.661C18.4668 13.9686 20.7268 15.8419 23.5182 15.8419C25.5277 15.8419 27.3049 14.8581 28.4011 13.3467L28.9906 15.5495H33.6554ZM25.463 13.9933C24.1754 13.9933 23.1316 12.9505 23.1316 11.661C23.1316 10.3733 24.1754 9.32953 25.463 9.32953C26.7506 9.32953 27.7954 10.3733 27.7954 11.661C27.7954 12.9505 26.7506 13.9933 25.463 13.9933Z" fill="#787878"/>
<path id="n1" d="M44.6061 2.72314C44.2537 2.72314 43.9203 2.80105 43.6232 2.94057L39.9108 4.67067C39.727 3.56553 38.767 2.72314 37.6089 2.72314C37.2584 2.72314 36.9242 2.80105 36.6232 2.94057L32.0908 5.05248H35.2775V15.5496H39.9422V6.22029C39.9422 5.57657 40.4632 5.05257 41.1089 5.05257C41.7508 5.05257 42.2756 5.57657 42.2756 6.22029V15.5496H46.9384V5.05248C46.9384 3.76514 45.8937 2.72324 44.6061 2.72324" fill="#787878"/>
<path id="o" d="M62.0961 9.32943C62.0961 12.9781 59.139 15.9352 55.4914 15.9352C51.8409 15.9352 48.8818 12.9781 48.8818 9.32943C48.8818 5.68172 51.8409 2.72314 55.4914 2.72314C59.139 2.72314 62.0961 5.68181 62.0961 9.32943ZM55.7647 4.7281C55.5571 3.95076 54.758 3.48934 53.9809 3.69829C53.2047 3.90638 52.7409 4.70591 52.9495 5.48314L55.2152 13.9305C55.4247 14.7086 56.2218 15.1695 56.999 14.9638C57.7761 14.7533 58.238 13.9543 58.0295 13.1771L55.7647 4.7281Z" fill="#787878"/>
<path id="n2" d="M73.8589 2.72314C73.5056 2.72314 73.1704 2.80105 72.8685 2.94057L69.1599 4.67067C68.977 3.56553 68.017 2.72314 66.8589 2.72314C66.5085 2.72314 66.1742 2.80105 65.8723 2.94057L61.3418 5.05248H64.5275V15.5496H69.1913V6.22029C69.1913 5.57657 69.7132 5.05257 70.3589 5.05257C71.0027 5.05257 71.5237 5.57657 71.5237 6.22029V15.5496H76.1904V5.05248C76.1904 3.76514 75.1447 2.72324 73.8589 2.72324" fill="#787878"/>
</g>
<defs>
<clipPath id="clip0_7_118">
<rect width="76.1905" height="16" fill="white"/>
</clipPath>
</defs>
</svg>
