<svg width="79" height="26" viewBox="0 0 79 26" fill="none" xmlns="http://www.w3.org/2000/svg">
<g id="Google">
<path id="Vector" d="M33.8008 13.6825C33.8008 17.4231 30.8745 20.1796 27.2832 20.1796C23.6919 20.1796 20.7656 17.4231 20.7656 13.6825C20.7656 9.91548 23.6919 7.18542 27.2832 7.18542C30.8745 7.18542 33.8008 9.91548 33.8008 13.6825ZM30.9477 13.6825C30.9477 11.345 29.2517 9.74559 27.2832 9.74559C25.3147 9.74559 23.6187 11.345 23.6187 13.6825C23.6187 15.9966 25.3147 17.6194 27.2832 17.6194C29.2517 17.6194 30.9477 15.9937 30.9477 13.6825Z" fill="#787878"/>
<path id="Vector_2" d="M47.8603 13.6825C47.8603 17.4231 44.934 20.1796 41.3428 20.1796C37.7515 20.1796 34.8252 17.4231 34.8252 13.6825C34.8252 9.91841 37.7515 7.18542 41.3428 7.18542C44.934 7.18542 47.8603 9.91548 47.8603 13.6825ZM45.0073 13.6825C45.0073 11.345 43.3112 9.74559 41.3428 9.74559C39.3743 9.74559 37.6783 11.345 37.6783 13.6825C37.6783 15.9966 39.3743 17.6194 41.3428 17.6194C43.3112 17.6194 45.0073 15.9937 45.0073 13.6825Z" fill="#787878"/>
<path id="Vector_3" d="M61.335 7.57794V19.2422C61.335 24.0403 58.5054 26 55.1602 26C52.0112 26 50.116 23.8939 49.4013 22.1715L51.8853 21.1374C52.3276 22.1949 53.4114 23.4427 55.1573 23.4427C57.2985 23.4427 58.6255 22.1217 58.6255 19.6347V18.7003H58.5259C57.8873 19.4883 56.657 20.1766 55.1045 20.1766C51.856 20.1766 48.8799 17.347 48.8799 13.7059C48.8799 10.0385 51.856 7.18542 55.1045 7.18542C56.6541 7.18542 57.8844 7.8738 58.5259 8.63833H58.6255V7.58087H61.335V7.57794ZM58.8276 13.7059C58.8276 11.4182 57.3015 9.74559 55.3594 9.74559C53.3909 9.74559 51.7418 11.4182 51.7418 13.7059C51.7418 15.9702 53.3909 17.6194 55.3594 17.6194C57.3015 17.6194 58.8276 15.9702 58.8276 13.7059Z" fill="#787878"/>
<path id="Vector_4" d="M65.8023 0.741089V19.7812H63.0195V0.741089H65.8023Z" fill="#787878"/>
<path id="Vector_5" d="M76.646 15.8208L78.8605 17.2972C78.1458 18.3546 76.4234 20.1766 73.4473 20.1766C69.7564 20.1766 67 17.3235 67 13.6796C67 9.81589 69.7799 7.1825 73.128 7.1825C76.4995 7.1825 78.1487 9.86569 78.6877 11.3157L78.9836 12.0538L70.2983 15.6509C70.9633 16.9545 71.9973 17.6194 73.4473 17.6194C74.9002 17.6194 75.9078 16.9047 76.646 15.8208ZM69.8297 13.4833L75.6354 11.0725C75.3161 10.2611 74.3553 9.69579 73.2247 9.69579C71.7747 9.69579 69.7564 10.9759 69.8297 13.4833Z" fill="#787878"/>
<path id="Vector_6" d="M10.2319 11.9923V9.23592H19.5205C19.6113 9.71631 19.6582 10.2846 19.6582 10.8997C19.6582 12.9678 19.0928 15.525 17.2708 17.347C15.4986 19.1924 13.2343 20.1767 10.2348 20.1767C4.67508 20.1767 0 15.648 0 10.0883C0 4.52862 4.67508 0 10.2348 0C13.3105 0 15.5016 1.20685 17.1478 2.77986L15.2028 4.72488C14.0223 3.61762 12.4229 2.75642 10.2319 2.75642C6.17193 2.75642 2.99662 6.02839 2.99662 10.0883C2.99662 14.1483 6.17193 17.4202 10.2319 17.4202C12.8653 17.4202 14.365 16.3628 15.3258 15.402C16.105 14.6228 16.6176 13.5097 16.8197 11.9894L10.2319 11.9923Z" fill="#787878"/>
</g>
</svg>
