<svg width="46" height="52" viewBox="0 0 46 52" fill="none" xmlns="http://www.w3.org/2000/svg">
<g id="Icon">
<path id="Path" fill-rule="evenodd" clip-rule="evenodd" d="M5.15039 22.8696V18.1739C5.15039 10.1391 11.2404 3.46087 19.2204 2.62609L25.1004 2V5.13043C33.8154 5.13043 40.8504 12.1217 40.8504 20.7826V22.8696H39.8004L35.6004 19.7391L33.5004 14.5217C33.5004 14.5217 28.9725 12.4348 23.0004 12.4348C17.0283 12.4348 12.5004 14.5217 12.5004 14.5217L10.4004 19.7391L6.20039 22.8696H5.15039Z" fill="white" stroke="black" stroke-width="3.13043"/>
<ellipse id="Oval" cx="16.1748" cy="26.5218" rx="2.625" ry="2.6087" fill="black"/>
<ellipse id="Oval_2" cx="29.8252" cy="26.5218" rx="2.625" ry="2.6087" fill="black"/>
<path id="Path_2" d="M29.3002 36.1449L29.0902 36.5623C27.9352 38.8579 25.6252 40.3188 23.0002 40.3188V40.3188C20.3752 40.3188 18.0652 38.8579 16.9102 36.5623L16.7002 36.1449" stroke="black" stroke-width="3.13043"/>
<path id="Path_3" d="M6.2002 22.8696L10.4002 19.7392L12.5002 14.5218C15.8602 13.0609 19.4302 12.4348 23.0002 12.4348C26.5702 12.4348 30.1402 13.0609 33.5002 14.5218L35.6002 19.7392L39.8002 22.8696" stroke="black" stroke-width="3.13043"/>
<path id="Path_4" d="M7.25 29.1304V25.4782C7.25 24.0173 6.095 22.8695 4.625 22.8695C3.155 22.8695 2 24.0173 2 25.4782V28.0869C2 31.0086 4.31 33.3043 7.25 33.3043C7.25 37.2695 8.93 41.1304 11.975 43.7391L15.86 47.0782C17.75 48.9565 20.27 49.9999 23 49.9999C25.73 49.9999 28.25 48.9565 30.14 47.0782L34.025 43.7391C37.07 41.1304 38.75 37.2695 38.75 33.3043C41.69 33.3043 44 31.0086 44 28.0869V25.4782C44 24.0173 42.845 22.8695 41.375 22.8695C39.905 22.8695 38.75 24.0173 38.75 25.4782V29.1304" stroke="black" stroke-width="3.13043"/>
</g>
</svg>
