<svg width="97" height="20" viewBox="0 0 97 20" fill="none" xmlns="http://www.w3.org/2000/svg">
<path fill-rule="evenodd" clip-rule="evenodd" d="M34.6982 2.25455L39.3455 12.1382H40.131V18.1818H43.6437V12.1382H44.4292L48.7055 2.25455H45.2364L42.3055 9.45455H41.6133L38.3637 2.25455H34.6982Z" fill="black"/>
<path fill-rule="evenodd" clip-rule="evenodd" d="M51.9201 18.1055C52.7346 18.4327 53.6655 18.5964 54.7128 18.5964C55.7746 18.5964 56.7128 18.4327 57.5273 18.1055C58.3419 17.7782 59.0291 17.3309 59.5891 16.7636C60.1491 16.1964 60.5746 15.5455 60.8655 14.8109C61.1564 14.0764 61.3019 13.3018 61.3019 12.4873V11.9855C61.3019 11.1564 61.1491 10.3673 60.8437 9.61818C60.5382 8.86909 60.1019 8.21091 59.5346 7.64364C58.9673 7.07636 58.2801 6.62909 57.4728 6.30182C56.6655 5.97455 55.7455 5.81091 54.7128 5.81091C53.7091 5.81091 52.8001 5.97455 51.9855 6.30182C51.171 6.62909 50.4764 7.07636 49.9019 7.64364C49.3273 8.21091 48.891 8.86909 48.5928 9.61818C48.2946 10.3673 48.1455 11.1564 48.1455 11.9855V12.4873C48.1455 13.3018 48.291 14.0764 48.5819 14.8109C48.8728 15.5455 49.2982 16.1964 49.8582 16.7636C50.4182 17.3309 51.1055 17.7782 51.9201 18.1055ZM56.4146 15.2145C55.9637 15.5055 55.3964 15.6509 54.7128 15.6509C54.0582 15.6509 53.4982 15.5055 53.0328 15.2145C52.5673 14.9236 52.2182 14.5164 51.9855 13.9927C51.7528 13.4691 51.6364 12.8873 51.6364 12.2473C51.6364 11.5636 51.7564 10.9636 51.9964 10.4473C52.2364 9.93091 52.5891 9.52 53.0546 9.21455C53.5201 8.90909 54.0728 8.75636 54.7128 8.75636C55.3673 8.75636 55.9237 8.90909 56.3819 9.21455C56.8401 9.52 57.1928 9.93091 57.4401 10.4473C57.6873 10.9636 57.811 11.5636 57.811 12.2473C57.811 12.8873 57.691 13.4691 57.451 13.9927C57.211 14.5164 56.8655 14.9236 56.4146 15.2145Z" fill="black"/>
<path fill-rule="evenodd" clip-rule="evenodd" d="M66.4142 18.1055C67.2287 18.4327 68.1596 18.5964 69.2069 18.5964C70.2687 18.5964 71.2069 18.4327 72.0215 18.1055C72.836 17.7782 73.5233 17.3309 74.0833 16.7636C74.6433 16.1964 75.0687 15.5455 75.3596 14.8109C75.6506 14.0764 75.796 13.3018 75.796 12.4873V11.9855C75.796 11.1564 75.6433 10.3673 75.3378 9.61818C75.0324 8.86909 74.596 8.21091 74.0287 7.64364C73.4615 7.07636 72.7742 6.62909 71.9669 6.30182C71.1596 5.97455 70.2396 5.81091 69.2069 5.81091C68.2033 5.81091 67.2942 5.97455 66.4796 6.30182C65.6651 6.62909 64.9706 7.07636 64.396 7.64364C63.8215 8.21091 63.3851 8.86909 63.0869 9.61818C62.7887 10.3673 62.6396 11.1564 62.6396 11.9855V12.4873C62.6396 13.3018 62.7851 14.0764 63.076 14.8109C63.3669 15.5455 63.7924 16.1964 64.3524 16.7636C64.9124 17.3309 65.5996 17.7782 66.4142 18.1055ZM70.9087 15.2145C70.4578 15.5055 69.8906 15.6509 69.2069 15.6509C68.5524 15.6509 67.9924 15.5055 67.5269 15.2145C67.0615 14.9236 66.7124 14.5164 66.4796 13.9927C66.2469 13.4691 66.1306 12.8873 66.1306 12.2473C66.1306 11.5636 66.2506 10.9636 66.4906 10.4473C66.7306 9.93091 67.0833 9.52 67.5487 9.21455C68.0142 8.90909 68.5669 8.75636 69.2069 8.75636C69.8615 8.75636 70.4178 8.90909 70.876 9.21455C71.3342 9.52 71.6869 9.93091 71.9342 10.4473C72.1815 10.9636 72.3051 11.5636 72.3051 12.2473C72.3051 12.8873 72.1851 13.4691 71.9451 13.9927C71.7051 14.5164 71.3596 14.9236 70.9087 15.2145Z" fill="black"/>
<path d="M77.876 18.1818V6.22545H80.6469V11.3527H80.5814C80.5814 9.66545 80.9414 8.36364 81.6614 7.44727C82.3814 6.53091 83.4251 6.07273 84.7923 6.07273H85.2505V9.08364H84.3778C83.4178 9.08364 82.676 9.34182 82.1523 9.85818C81.6287 10.3745 81.3669 11.12 81.3669 12.0945V18.1818H77.876Z" fill="black"/>
<path fill-rule="evenodd" clip-rule="evenodd" d="M93.855 15.8891V18.1818H96.6259V10.8509C96.6259 9.74545 96.4077 8.84 95.9713 8.13455C95.535 7.42909 94.8986 6.90182 94.0623 6.55273C93.2259 6.20364 92.1968 6.02909 90.975 6.02909C90.5532 6.02909 90.1023 6.03636 89.6223 6.05091C89.1423 6.06545 88.6768 6.08727 88.2259 6.11636C87.775 6.14545 87.3823 6.17455 87.0477 6.20364V9.14909C87.4986 9.12 88.0004 9.09091 88.5532 9.06182C89.1059 9.03273 89.6441 9.01091 90.1677 8.99636C90.6913 8.98182 91.1132 8.97455 91.4332 8.97455C92.0732 8.97455 92.5386 9.12727 92.8295 9.43273C93.1204 9.73818 93.2659 10.1964 93.2659 10.8073V10.8509H91.1059C90.0441 10.8509 89.1059 10.9855 88.2913 11.2545C87.4768 11.5236 86.8441 11.9382 86.3932 12.4982C85.9423 13.0582 85.7168 13.7745 85.7168 14.6473C85.7168 15.4473 85.8986 16.1345 86.2623 16.7091C86.6259 17.2836 87.1313 17.7236 87.7786 18.0291C88.4259 18.3345 89.1786 18.4873 90.0368 18.4873C90.8659 18.4873 91.5677 18.3345 92.1423 18.0291C92.7168 17.7236 93.1677 17.2873 93.495 16.72C93.64 16.4687 93.76 16.1917 93.855 15.8891ZM93.2659 13.7527V12.7927H91.0841C90.4732 12.7927 90.0041 12.9418 89.6768 13.24C89.3495 13.5382 89.1859 13.9418 89.1859 14.4509C89.1859 14.9309 89.3495 15.32 89.6768 15.6182C90.0041 15.9164 90.4732 16.0655 91.0841 16.0655C91.4768 16.0655 91.8295 15.9964 92.1423 15.8582C92.455 15.72 92.7132 15.4836 92.9168 15.1491C93.1204 14.8145 93.2368 14.3491 93.2659 13.7527Z" fill="black"/>
<rect x="21.8184" y="12.7273" width="7.27273" height="21.8182" transform="rotate(90 21.8184 12.7273)" fill="#004050"/>
<path d="M10.9091 10.9091C4.88417 10.9091 0 6.02492 0 -9.53674e-07L21.8182 -9.53674e-07C21.8182 6.02492 16.934 10.9091 10.9091 10.9091Z" fill="#00D565"/>
</svg>
