<svg width="51" height="51" viewBox="0 0 51 51" fill="none" xmlns="http://www.w3.org/2000/svg">
<g id="Icon">
<g id="Loading">
<g id="Path">
<path fill-rule="evenodd" clip-rule="evenodd" d="M19.4293 0V8.16718V0Z" fill="#D8D8D8"/>
<path d="M19.4293 0V8.16718" stroke="white" stroke-width="3.06395"/>
</g>
<g id="Path_2">
<path fill-rule="evenodd" clip-rule="evenodd" d="M8.18064 19.3972H0H8.18064Z" fill="#D8D8D8"/>
<path d="M8.18064 19.3972H0" stroke="white" stroke-width="3.06395"/>
</g>
<g id="Path_3">
<path fill-rule="evenodd" clip-rule="evenodd" d="M34.0516 4.7981L28.3252 10.5151L34.0516 4.7981Z" fill="#D8D8D8"/>
<path d="M34.0516 4.7981L28.3252 10.5151" stroke="white" stroke-width="3.06395"/>
</g>
<g id="Path_4">
<path fill-rule="evenodd" clip-rule="evenodd" d="M10.5321 28.2788L4.80566 33.9958L10.5321 28.2788Z" fill="#D8D8D8"/>
<path d="M10.5321 28.2788L4.80566 33.9958" stroke="white" stroke-width="3.06395"/>
</g>
<g id="Path_5">
<path fill-rule="evenodd" clip-rule="evenodd" d="M10.5321 10.5151L4.80566 4.7981L10.5321 10.5151Z" fill="#D8D8D8"/>
<path d="M10.5321 10.5151L4.80566 4.7981" stroke="white" stroke-width="3.06395"/>
</g>
</g>
<path id="Rectangle" fill-rule="evenodd" clip-rule="evenodd" d="M16.1855 20.5491L20.5239 16.2178L48.0005 43.6491L43.6621 47.9804L16.1855 20.5491Z" stroke="white" stroke-width="3.06392"/>
<path id="Rectangle " fill-rule="evenodd" clip-rule="evenodd" d="M22.9053 27.2666L27.243 22.9347L47.9998 43.649L43.662 47.9809L22.9053 27.2666Z" fill="white" stroke="white" stroke-width="3.06392"/>
</g>
</svg>
