<svg width="104" height="25" viewBox="0 0 104 25" fill="none" xmlns="http://www.w3.org/2000/svg">
<g id="walmart-seeklogo.com">
<path id="Fill 3" fill-rule="evenodd" clip-rule="evenodd" d="M58.8095 16.3898C58.8095 16.5961 58.7902 16.8103 58.7363 16.9955C58.5088 17.7703 57.7266 18.4265 56.7501 18.4265C55.9369 18.4265 55.2876 17.9501 55.2876 16.945C55.2876 15.4076 56.935 14.9829 58.8095 14.9932V16.3898ZM61.7487 13.7114C61.7487 11.1749 60.6944 8.94397 57.1345 8.94397C55.3074 8.94397 53.8554 9.47148 53.0638 9.94124L53.643 11.9797C54.3667 11.5099 55.5204 11.1214 56.6115 11.1214C58.4181 11.1172 58.7135 12.1734 58.7135 12.8501V13.0101C54.7757 13.0034 52.2881 14.4049 52.2881 17.2608C52.2881 19.0051 53.5559 20.64 55.7579 20.64C57.114 20.64 58.2467 20.0836 58.9253 19.1934H58.9937C58.9937 19.1934 59.4425 21.126 61.9201 20.3879C61.7914 19.5825 61.7487 18.723 61.7487 17.6909V13.7114Z" fill="#787878"/>
<path id="Fill 4" fill-rule="evenodd" clip-rule="evenodd" d="M0 6.19202C0 6.19202 2.5531 16.5962 2.96071 18.2851C3.43626 20.2563 4.29329 20.981 6.76452 20.4931L8.35839 14.0423C8.7631 12.4389 9.03368 11.2974 9.29323 9.66739H9.3391C9.52084 11.3141 9.78155 12.4441 10.1143 14.0475C10.1143 14.0475 10.7628 16.9755 11.0955 18.5137C11.4294 20.0508 12.3561 21.0208 14.7763 20.4931L18.576 6.19202H15.5085L14.2113 12.3748C13.8617 14.174 13.547 15.5811 13.302 17.2279H13.259C13.0366 15.5973 12.7556 14.2467 12.4003 12.4938L11.0503 6.19202H7.85323L6.40974 12.3344C6.00039 14.2011 5.61774 15.7087 5.37387 17.2983H5.33032C5.08065 15.8011 4.74794 13.9067 4.38968 12.1C4.38968 12.1 3.53032 7.70711 3.22955 6.19202" fill="#787878"/>
<path id="Fill 5" fill-rule="evenodd" clip-rule="evenodd" d="M24.4075 16.3898C24.4075 16.5961 24.3905 16.8103 24.3344 16.9955C24.1068 17.7703 23.3258 18.4265 22.3495 18.4265C21.5346 18.4265 20.8876 17.9501 20.8876 16.945C20.8876 15.4076 22.5338 14.9829 24.4075 14.9932V16.3898ZM27.3465 13.7114C27.3465 11.1749 26.293 8.94397 22.7332 8.94397C20.9045 8.94397 19.4543 9.47148 18.6616 9.94124L19.242 11.9797C19.9656 11.5099 21.1181 11.1214 22.2102 11.1214C24.0173 11.1172 24.3127 12.1734 24.3127 12.8501V13.0101C20.3745 13.0034 17.8877 14.4049 17.8877 17.2608C17.8877 19.0051 19.1542 20.64 21.3562 20.64C22.711 20.64 23.8447 20.0836 24.5239 19.1934H24.59C24.59 19.1934 25.0405 21.126 27.5197 20.3879C27.3887 19.5825 27.3465 18.723 27.3465 17.6909V13.7114Z" fill="#787878"/>
<path id="Fill 6" fill-rule="evenodd" clip-rule="evenodd" d="M32.336 17.5719V6.19202H29.584V20.64H32.336" fill="#787878"/>
<path id="Fill 7" fill-rule="evenodd" clip-rule="evenodd" d="M71.5518 6.19202V16.6745C71.5518 18.1172 71.8306 19.1308 72.4295 19.7497C72.9506 20.2895 73.8107 20.64 74.8411 20.64C75.7194 20.64 76.5824 20.4783 76.9874 20.3308L76.9491 18.0759C76.6472 18.1482 76.2983 18.2061 75.8226 18.2061C74.8134 18.2061 74.475 17.5774 74.475 16.2793V12.2708H77.0558V9.55176H74.475V6.19202" fill="#787878"/>
<path id="Fill 8" fill-rule="evenodd" clip-rule="evenodd" d="M63.9844 9.87496V20.64H66.9312V15.1273C66.9312 14.8299 66.95 14.5701 66.9954 14.3329C67.2148 13.1781 68.0813 12.4409 69.3274 12.4409C69.6689 12.4409 69.9139 12.478 70.1764 12.5167V9.69849C69.9559 9.65221 69.8048 9.63196 69.528 9.63196C68.4268 9.63196 67.1756 10.354 66.6505 11.9052H66.5698V9.87496" fill="#787878"/>
<path id="Fill 9" fill-rule="evenodd" clip-rule="evenodd" d="M34.4004 9.87496V20.64H37.4066V14.3265C37.4066 14.0309 37.4411 13.7167 37.5481 13.4459C37.7978 12.8101 38.4055 12.0655 39.3746 12.0655C40.5876 12.0655 41.1554 13.0629 41.1554 14.5047V20.64H44.158V14.2502C44.158 13.9678 44.1978 13.6282 44.284 13.3771C44.5302 12.6539 45.1848 12.0655 46.0874 12.0655C47.3176 12.0655 47.9074 13.0467 47.9074 14.7414V20.64H50.9124V14.2999C50.9124 10.9552 49.1673 9.63196 47.1987 9.63196C46.3258 9.63196 45.6373 9.8443 45.0154 10.2163C44.4916 10.5293 44.0236 10.9725 43.614 11.5569H43.57C43.0943 10.3968 41.9771 9.63196 40.5204 9.63196C38.6498 9.63196 37.8097 10.5542 37.2984 11.3376H37.2538V9.87496" fill="#787878"/>
<path id="Fill 10" fill-rule="evenodd" clip-rule="evenodd" d="M93.2215 8.256C93.8096 8.256 94.2963 7.9572 94.3617 7.57164L94.9439 1.15439C94.9439 0.520597 94.1818 0 93.2227 0C92.266 0 91.5039 0.520597 91.5039 1.15439L92.0855 7.57164C92.1492 7.9572 92.6358 8.256 93.2251 8.256" fill="#787878"/>
<path id="Fill 11" fill-rule="evenodd" clip-rule="evenodd" d="M89.24 10.3065C89.5234 9.77295 89.5012 9.17159 89.202 8.90575L83.9899 4.93491C83.4481 4.59568 82.6355 5.00522 82.1732 5.87427C81.7121 6.74147 81.7921 7.71105 82.3339 8.05151L88.1042 10.9695C88.4671 11.1157 88.9583 10.8357 89.2417 10.304" fill="#787878"/>
<path id="Fill 12" fill-rule="evenodd" clip-rule="evenodd" d="M96.5179 10.304C96.803 10.8357 97.2919 11.1157 97.6537 10.9695L103.426 8.05147C103.97 7.711 104.048 6.74141 103.585 5.8742C103.124 5.00576 102.312 4.5956 101.769 4.93483L96.5565 8.90573C96.2584 9.17156 96.2385 9.77293 96.5196 10.3065" fill="#787878"/>
<path id="Fill 13" fill-rule="evenodd" clip-rule="evenodd" d="M93.2215 16.512C93.8096 16.512 94.2963 16.8107 94.3617 17.1962L94.9439 23.6126C94.9439 24.2463 94.1818 24.768 93.2227 24.768C92.266 24.768 91.5039 24.2463 91.5039 23.6126L92.0855 17.1962C92.1492 16.8107 92.6358 16.512 93.2251 16.512" fill="#787878"/>
<path id="Fill 14" fill-rule="evenodd" clip-rule="evenodd" d="M96.5179 13.7766C96.803 13.2425 97.2919 12.9649 97.6537 13.1105L103.426 16.0277C103.97 16.3688 104.048 17.3383 103.585 18.2067C103.124 19.0732 102.312 19.4846 101.769 19.1454L96.5565 15.1747C96.2584 14.9077 96.2385 14.307 96.5196 13.7741" fill="#787878"/>
<path id="Fill 15" fill-rule="evenodd" clip-rule="evenodd" d="M89.24 13.7749C89.5234 14.3079 89.5012 14.908 89.202 15.1758L83.9899 19.1451C83.4481 19.4844 82.6355 19.0748 82.1732 18.2081C81.7121 17.3396 81.7921 16.3687 82.3339 16.0276L88.1042 13.1112C88.4671 12.9638 88.9583 13.2426 89.2417 13.7768" fill="#787878"/>
</g>
</svg>
