<svg width="51" height="12" viewBox="0 0 51 12" fill="none" xmlns="http://www.w3.org/2000/svg">
<g id="social">
<path id="icon_twitter" d="M3.61608 10.0001C7.59376 10.0001 9.77011 6.7055 9.77011 3.84612C9.77011 3.75237 9.77011 3.65862 9.76341 3.56487C10.1853 3.25684 10.5536 2.87514 10.8482 2.44657C10.4598 2.61398 10.038 2.73452 9.60269 2.78139C10.0514 2.51353 10.3929 2.09166 10.5536 1.58943C10.1384 1.83719 9.66966 2.018 9.18082 2.11175C8.78573 1.68987 8.22323 1.42871 7.60046 1.42871C6.4018 1.42871 5.43751 2.39969 5.43751 3.59166C5.43751 3.75907 5.4576 3.92648 5.49108 4.0872C3.69644 3.99345 2.09599 3.1363 1.03126 1.8238C0.843755 2.14523 0.736612 2.51353 0.736612 2.91532C0.736612 3.66532 1.11831 4.32827 1.7009 4.71666C1.34599 4.70327 1.01117 4.60282 0.723219 4.44211V4.46889C0.723219 5.52023 1.46652 6.39077 2.4576 6.59166C2.27679 6.63854 2.0826 6.66532 1.8884 6.66532C1.74777 6.66532 1.61385 6.65193 1.47992 6.63184C1.75447 7.48899 2.55135 8.11175 3.50224 8.13184C2.75894 8.71443 1.82813 9.05595 0.816969 9.05595C0.636165 9.05595 0.468755 9.04926 0.294647 9.02917C1.25224 9.64524 2.39063 10.0001 3.61608 10.0001Z" fill="white"/>
<path id="icon_fb" d="M25.4911 10.8573V6.87288H24.1518V5.31931H25.4911V4.17422C25.4911 2.84832 26.308 2.12511 27.4933 2.12511C28.0558 2.12511 28.5447 2.16529 28.6853 2.18537V3.57154L27.8683 3.57823C27.2188 3.57823 27.0982 3.87957 27.0982 4.32823V5.31931H28.6317L28.4308 6.87288H27.0982V10.8573H28.3572C29.4219 10.8573 30.2857 9.99342 30.2857 8.92869V2.50011C30.2857 1.43537 29.4219 0.571533 28.3572 0.571533H21.9286C20.8638 0.571533 20 1.43537 20 2.50011V8.92869C20 9.99342 20.8638 10.8573 21.9286 10.8573H25.4911Z" fill="white"/>
<path id="icon_ig" fill-rule="evenodd" clip-rule="evenodd" d="M47.2656 10.8237C48.0893 10.7835 48.8192 10.596 49.4219 9.99335C50.0246 9.39067 50.2121 8.66076 50.2522 7.8371C50.279 7.36388 50.285 6.89364 50.286 6.42241L50.2857 5.71433L50.2859 5.44822V5.44818C50.2867 4.82845 50.2874 4.21257 50.2522 3.59156C50.2121 2.76789 50.0246 2.03798 49.4219 1.4353C48.8192 0.832624 48.0893 0.645124 47.2656 0.604946C46.7924 0.57816 46.3222 0.572207 45.8509 0.571215L45.1429 0.571463L44.8767 0.571254C44.257 0.570522 43.6411 0.569794 43.0201 0.604946C42.1964 0.645124 41.4665 0.832624 40.8638 1.4353C40.2612 2.03798 40.0737 2.76789 40.0335 3.59156C40.0067 4.06477 40.0007 4.53501 39.9997 5.00624L40 5.71433L39.9998 5.98046C39.999 6.60019 39.9983 7.21608 40.0335 7.8371C40.0737 8.66076 40.2612 9.39067 40.8638 9.99335C41.4665 10.596 42.1964 10.7835 43.0201 10.8237C43.4933 10.8505 43.9635 10.8564 44.4348 10.8574L45.1429 10.8572L45.409 10.8574H45.409C46.0287 10.8581 46.6446 10.8589 47.2656 10.8237ZM45.3303 9.93398L45.1429 9.93308C45.0378 9.93308 44.916 9.93426 44.7823 9.93556C43.961 9.94353 42.691 9.95584 42.1094 9.72549C41.875 9.63174 41.7009 9.5179 41.5201 9.3371C41.3393 9.15629 41.2254 8.98219 41.1317 8.74781C40.9013 8.16617 40.9137 6.89614 40.9216 6.07488C40.9229 5.94116 40.9241 5.81934 40.9241 5.71433C40.9241 5.60931 40.9229 5.48749 40.9216 5.35378C40.9137 4.53251 40.9013 3.26248 41.1317 2.68084C41.2254 2.44647 41.3393 2.27236 41.5201 2.09155C41.7009 1.91075 41.875 1.79691 42.1094 1.70316C42.691 1.47281 43.961 1.48513 44.7823 1.49309C44.916 1.49439 45.0378 1.49557 45.1429 1.49557C45.2479 1.49557 45.3697 1.49439 45.5034 1.49309C46.3247 1.48513 47.5947 1.47281 48.1763 1.70316C48.4107 1.79691 48.5848 1.91075 48.7656 2.09155C48.9464 2.27236 49.0603 2.44647 49.154 2.68084C49.3844 3.26248 49.3721 4.53251 49.3641 5.35378C49.3628 5.48749 49.3616 5.60931 49.3616 5.71433C49.3616 5.81934 49.3628 5.94116 49.3641 6.07488C49.3721 6.89614 49.3844 8.16617 49.154 8.74781C49.0603 8.98219 48.9464 9.15629 48.7656 9.3371C48.5848 9.5179 48.4107 9.63174 48.1763 9.72549C47.5947 9.95584 46.3247 9.94353 45.5034 9.93556L45.3303 9.93398ZM48.5045 2.96879C48.5045 3.31031 48.2299 3.58486 47.8884 3.58486C47.5469 3.58486 47.2723 3.31031 47.2723 2.96879C47.2723 2.62727 47.5469 2.35272 47.8884 2.35272C48.2299 2.35272 48.5045 2.62727 48.5045 2.96879ZM45.1429 8.35272C46.6027 8.35272 47.7813 7.17415 47.7813 5.71433C47.7813 4.2545 46.6027 3.07593 45.1429 3.07593C43.683 3.07593 42.5045 4.2545 42.5045 5.71433C42.5045 7.17415 43.683 8.35272 45.1429 8.35272ZM43.4286 5.71433C43.4286 6.65852 44.1987 7.42861 45.1429 7.42861C46.0871 7.42861 46.8571 6.65852 46.8571 5.71433C46.8571 4.77013 46.0871 4.00004 45.1429 4.00004C44.1987 4.00004 43.4286 4.77013 43.4286 5.71433Z" fill="white"/>
</g>
</svg>
